<svg t="1742020882613" class="icon" viewBox="0 0 1024 1024" version="1.1" xmlns="http://www.w3.org/2000/svg" p-id="9713" width="22" height="22"><path d="M434 590v364H206c-36.3 0-70.5-14.1-96.2-39.8C84.1 888.5 70 854.3 70 818V590h364m70-70H0v298c0 113.8 92.2 206 206 206h298V520zM888.7 0L639.8 19.7c-26.9 1.1-45.2 27.9-36.5 53.5l72.2 238.9c7.3 18 31.2 21.3 40.4 7.9l33.5-49.1C843.1 334.8 963.5 417 946 653.4c1.4 7.6 8.9 6.2 12 1.7 167-350.1-28.7-522.9-86.8-562.5l36.5-53.5c12.2-17.8 0.4-38.9-19-39.1z" p-id="9714"></path></svg>