<svg t="1760421394343" class="icon" viewBox="0 0 1024 1024" version="1.1" xmlns="http://www.w3.org/2000/svg" p-id="4242" width="22" height="22"><path d="M162.9 431c-2.2 1.6-4.5 3.1-6.9 4.4 2.4-1.4 4.7-2.8 6.9-4.4zM73.9 429.6c-1.9-1.5-3.7-3-5.4-4.7 1.8 1.6 3.6 3.2 5.4 4.7zM51.2 399.6c0.7 1.7 1.5 3.5 2.4 5.2 2.1 4.1 4.5 7.9 7.2 11.4-2.7-3.6-5.1-7.4-7.2-11.4-0.9-1.7-1.7-3.4-2.4-5.2z" fill="#F79600" p-id="4243"></path><path d="M660.1 318.8c0.1-1 0.1-2 0-3-0.8-3.8-3.7-7-7.6-8.6l-124-52.5c-3.9-1.6-8.5-1.6-12.4 0L392.6 307c-3.9 1.7-6.7 4.9-7.6 8.6-0.1 1-0.1 2 0 3v147.6l-112.1 46.6c-2 0.2-3.8 0.8-5.5 1.8-4.2 2.3-6.7 6.3-6.8 10.7v155.1c0 4.9 3.2 9.4 8.2 11.5l123.5 51.6h0.7c3.5 1.5 7.5 1.5 11 0h0.7L520 694.9l118.6 49.7c3.5 1.4 7.5 1.4 11 0h0.7l123.5-51.8c5-2.1 8.2-6.5 8.2-11.4V526.3c0-1.6-0.4-3.1-1-4.6-1.1-3.5-3.8-6.4-7.5-8l-115.4-48.1 2-146.8zM384.3 712l-94.6-39.6V545.6l94.6 38.8V712z m14.4-149l-89.1-37.3 89.3-37.4 89.1 37.3-89.3 37.4z m109.1 109.4l-94.6 39.7V584.4l94.6-39.6v127.6z m0-166.6l-94.6-39.6V339.3l94.6 39.7v126.8zM431.5 318l90.7-38.1 90.7 38.1-90.7 38.1-90.7-38.1z m199.7 20.5v126.8l-94.6 39.6V378l94.6-39.5z m0 374l-94.6-39.3V546.4l94.6 39.7v126.4z m123.5-39.3l-94.6 39.6V585.9l94.6-39.6v126.9z m-18-147.4l-91 38.1-90.6-38.1 91-38.1 90.6 38.1z" p-id="4244" fill="#F79600"></path><path d="M974.6 305.7v0c0-1.1 0-2.2-0.1-3.3 0.1 1.1 0.1 2.2 0.1 3.3zM933.4 238.6c-3.3-1.6-6.7-3.1-10.3-4.2 3.6 1.1 7 2.5 10.3 4.2zM969.2 277.8c-0.8-2-1.7-4.1-2.7-6-0.6-1.1-1.1-2.2-1.7-3.3 0.6 1.1 1.2 2.2 1.7 3.3 1 1.9 1.9 3.9 2.7 6zM970 279.8c0.5 1.4 1 2.8 1.4 4.2-0.4-1.4-0.9-2.8-1.4-4.2zM826.2 318.2zM828.8 282c-0.4 1.2-0.7 2.4-1.1 3.6 0.4-1.3 0.7-2.5 1.1-3.6z" fill="#F79600" p-id="4245"></path><path d="M74.7 414.9c1.9 1.5 3.9 2.9 5.9 4.2 5.1 3.2 10.6 5.9 16.4 7.8 0.9 0.3 1.9 0.6 2.8 0.9 0.3 0.1 0.6 0.2 1 0.3 0.6 0.2 1.3 0.4 1.9 0.5l1.2 0.3c0.6 0.1 1.2 0.3 1.7 0.4 0.4 0.1 0.8 0.2 1.3 0.2 0.6 0.1 1.1 0.2 1.7 0.3 0.4 0.1 0.9 0.1 1.3 0.2 0.5 0.1 1.1 0.2 1.6 0.2 0.4 0.1 0.9 0.1 1.3 0.1 0.5 0.1 1.1 0.1 1.6 0.2 0.5 0 0.9 0.1 1.4 0.1 0.5 0 1.1 0.1 1.6 0.1H125.2c0.4 0 0.8-0.1 1.1-0.1 0.3 0 0.7 0 1-0.1 0.4 0 0.8-0.1 1.1-0.1 0.3 0 0.7-0.1 1-0.1 0.4 0 0.8-0.1 1.1-0.1 0.3 0 0.7-0.1 1-0.1 0.4-0.1 0.8-0.1 1.1-0.2 0.3-0.1 0.7-0.1 1-0.2 0.4-0.1 0.8-0.1 1.2-0.2 0.3-0.1 0.7-0.1 1-0.2l1.2-0.3c0.3-0.1 0.7-0.1 1-0.2l1.2-0.3c0.3-0.1 0.6-0.2 1-0.2l1.2-0.3 0.9-0.3c0.4-0.1 0.8-0.2 1.2-0.4l0.9-0.3c0.4-0.1 0.8-0.3 1.2-0.4l0.9-0.3c0.4-0.2 0.8-0.3 1.2-0.5 0.3-0.1 0.5-0.2 0.8-0.3 0.4-0.2 0.8-0.4 1.3-0.5 0.2-0.1 0.5-0.2 0.8-0.3 0.5-0.2 1-0.4 1.4-0.7 0.2-0.1 0.4-0.2 0.5-0.2 0.7-0.3 1.3-0.6 2-1 1.1-0.6 2.2-1.1 3.3-1.7 2.4-1.4 4.7-2.9 7-4.5 0.7-0.5 1.5-1.1 2.2-1.7 2.9-2.3 5.6-4.7 8.1-7.4 2.5-2.6 4.8-5.5 6.9-8.5 0.7-1 1.4-2 2-3 1.6-2.6 3.1-5.3 4.4-8 0.7-1.4 1.3-2.8 1.8-4.2 0.6-1.4 1.1-2.9 1.6-4.4 2-5.9 3.2-11.9 3.6-18 0.3-3.6 0.3-7.3 0-10.9-0.2-2.4-0.5-4.8-0.9-7.2-0.4-2.4-1-4.8-1.6-7.1-1.3-4.7-3.1-9.3-5.4-13.7-0.5-1-1.1-2-1.6-3-0.2-0.3-0.3-0.5-0.5-0.8-0.5-0.8-1-1.6-1.4-2.4-0.1-0.2-0.2-0.4-0.4-0.6-0.6-0.9-1.2-1.9-1.9-2.8-0.2-0.2-0.3-0.4-0.5-0.7-0.5-0.7-1.1-1.4-1.6-2.1-0.2-0.2-0.4-0.5-0.5-0.7-0.7-0.9-1.4-1.7-2.1-2.5l-0.3-0.3c-0.6-0.7-1.3-1.4-1.9-2.1-0.2-0.2-0.4-0.4-0.6-0.7l-2-2-0.3-0.3-2.4-2.1c-0.2-0.2-0.4-0.4-0.7-0.6-0.7-0.5-1.3-1.1-2-1.6-0.2-0.2-0.4-0.3-0.6-0.5-0.8-0.6-1.7-1.3-2.6-1.9-0.2-0.1-0.4-0.3-0.6-0.4-0.7-0.5-1.4-1-2.2-1.4-0.3-0.2-0.5-0.3-0.8-0.5-0.9-0.6-1.8-1.1-2.8-1.6h-0.1c-0.9-0.5-1.8-1-2.8-1.5-0.3-0.1-0.5-0.3-0.8-0.4-0.8-0.4-1.6-0.7-2.4-1.1l-0.6-0.3c-1-0.4-1.9-0.8-2.9-1.2-0.2-0.1-0.5-0.2-0.7-0.3-0.8-0.3-1.6-0.6-2.4-0.8-0.3-0.1-0.5-0.2-0.8-0.3l-3-0.9c-0.1 0-0.3-0.1-0.4-0.1-0.9-0.2-1.8-0.5-2.7-0.7-0.3-0.1-0.6-0.1-0.9-0.2-0.9-0.2-1.8-0.4-2.8-0.6-0.1 0-0.3-0.1-0.4-0.1-1-0.2-2.1-0.3-3.1-0.5-0.3 0-0.6-0.1-0.8-0.1-0.8-0.1-1.7-0.2-2.6-0.3-0.3 0-0.5 0-0.8-0.1-1.1-0.1-2.1-0.1-3.2-0.2h-4c-1 0-2.1 0.1-3.1 0.1h-0.6c-1.1 0.1-2.1 0.2-3.2 0.3h-0.3c-1 0.1-2.1 0.3-3.1 0.4-0.1 0-0.3 0-0.4 0.1-1.1 0.2-2.1 0.4-3.2 0.6-0.2 0-0.4 0.1-0.6 0.1-1.1 0.2-2.1 0.5-3.2 0.8-0.1 0-0.3 0.1-0.4 0.1-1 0.3-2.1 0.6-3.1 0.9-0.1 0-0.2 0.1-0.3 0.1-1.1 0.3-2.1 0.7-3.1 1.1-0.2 0.1-0.4 0.1-0.6 0.2-1 0.4-2 0.8-3.1 1.3-0.2 0.1-0.4 0.2-0.5 0.2-1.1 0.5-2.1 1-3.1 1.5l-3.9 2.1c-1.3 0.7-2.5 1.5-3.7 2.3-2.8 1.9-5.5 3.9-7.9 6.1-1.9 1.6-3.6 3.3-5.3 5.1-3.3 3.6-6.3 7.4-8.8 11.5-2.5 4.1-4.7 8.4-6.4 12.9-0.9 2.2-1.6 4.5-2.2 6.8-1 3.5-1.7 7-2.1 10.6-0.3 2.4-0.5 4.8-0.6 7.2v3.6c0 2.4 0.2 4.8 0.5 7.3 0.6 4.8 1.6 9.7 3.2 14.4 0.6 1.8 1.2 3.6 2 5.3 0.7 1.8 1.5 3.5 2.4 5.2 2.1 4.1 4.5 8 7.3 11.6 1.7 2.2 3.4 4.2 5.3 6.2 0.8 0.9 1.7 1.7 2.6 2.6 1.5 2 3.3 3.6 5.2 5.1z" p-id="4246" fill="#F79600"></path><path d="M192.8 335.9c0.7 2.3 1.2 4.7 1.6 7.1-0.4-2.4-1-4.7-1.6-7.1zM192.8 335.9c-1.3-4.7-3.1-9.3-5.4-13.7 2.2 4.4 4 9 5.4 13.7z" fill="#F79600" p-id="4247"></path><path d="M820.3 222.6c4.5-4.6 9.5-8.9 14.8-12.7 10.7-7.6 22.4-13.2 34.7-16.6-36.2-42.8-79.3-78.1-128.3-105C689.8 59.9 633.8 42 574.9 35.2c-58.8-6.9-117.5-2.5-174.4 13.2-58.9 16.2-113.2 43.8-161.6 82-39.7 31.4-73.5 68.7-100.8 111.1 13.9 2.3 27.4 7.2 39.6 14.5 4.3 2.6 8.4 5.5 12.3 8.6 26.6-39.5 59.5-73.6 98.1-101.3 42-30.1 88.8-51.6 139.3-63.8 50.5-12.2 101.9-14.5 153-6.9 52.9 7.9 103.1 26.2 149.1 54.3 34.1 20.6 64.5 46.1 90.8 75.7zM975.4 441.3c-1.8-17.5-4.7-34.9-8.6-52.1-15.5 11.8-33.7 19.3-53.1 21.7 9.4 46.6 10.4 93.7 3 140.5-8 51.1-25.7 99.6-52.5 144.1s-61.3 82.9-102.7 113.9c-42.8 32.2-91.1 55.1-143.5 68.1-9.9 2.5-19.9 4.5-30 6.3 4.9 18.6 5 38.1-0.1 57 54.4-8 106.2-25.4 154.2-52 51.6-28.6 96.7-66.4 134-112.5 37.3-46.1 64.9-98.1 82.1-154.6 18-58.4 23.7-119.1 17.2-180.4zM183.8 703.7c-24.2-38.1-41.8-79.6-52.1-123.5-9.1-38.7-12.4-78.4-9.8-118.1h-2.3c-11.7 0-23.3-1.9-34.4-5.6-6.6-2.2-12.8-5-18.8-8.3-4.3 47.8-1.1 95.7 9.6 142.4 11.6 50.6 31.5 98.6 59.4 142.6 27.8 44 62.6 82.6 103.3 114.8 40.2 31.7 85.2 56.3 133.7 73.1-0.9-12.8 0.4-25.9 4-38.5 1.8-6.2 4.1-12.2 6.8-18-39.7-14.6-76.5-35.3-109.7-61.5-35.3-27.8-65.5-61.3-89.7-99.4zM869 232.3c-1 0.5-2 0.9-3 1.4-0.1 0-0.2 0.1-0.3 0.1-0.9 0.5-1.8 0.9-2.7 1.4-0.3 0.2-0.6 0.3-0.8 0.5-0.7 0.4-1.4 0.8-2 1.2l-0.9 0.6c-0.7 0.4-1.4 0.9-2 1.4-0.2 0.2-0.5 0.3-0.7 0.5-0.9 0.6-1.8 1.3-2.7 2l-0.1 0.1c-0.8 0.6-1.6 1.3-2.4 2-0.2 0.2-0.5 0.4-0.7 0.6-0.6 0.5-1.2 1.1-1.8 1.6-0.3 0.2-0.5 0.5-0.8 0.7-0.6 0.6-1.2 1.1-1.7 1.7l-0.6 0.6c-0.8 0.8-1.5 1.6-2.3 2.5 0 0 0 0.1-0.1 0.1-0.7 0.8-1.4 1.6-2.1 2.5-0.2 0.3-0.4 0.5-0.6 0.8-0.5 0.6-1 1.3-1.4 1.9-0.2 0.3-0.4 0.6-0.7 0.9-0.5 0.7-0.9 1.3-1.4 2-0.2 0.3-0.4 0.6-0.5 0.8-0.6 1-1.2 1.9-1.8 2.9v0.1c-0.5 1-1.1 1.9-1.6 2.9-0.2 0.3-0.3 0.6-0.5 1-0.4 0.7-0.7 1.4-1 2.2-0.2 0.4-0.3 0.7-0.5 1.1-0.3 0.7-0.6 1.5-0.9 2.2-0.1 0.3-0.3 0.7-0.4 1l-1.2 3.3c-0.4 1.2-0.7 2.4-1.1 3.6-0.7 2.4-1.2 4.8-1.6 7.2-0.4 2.4-0.7 4.8-0.9 7.3-0.1 1.2-0.1 2.4-0.2 3.6v3.6c0 1.3 0.1 2.6 0.2 4 0.2 2.3 0.5 4.6 0.9 6.9 1 6 2.8 11.9 5.3 17.5 0.5 1.1 1 2.2 1.6 3.4 1.2 2.4 2.5 4.6 3.9 6.8s2.9 4.3 4.6 6.3c2.7 3.4 5.7 6.4 8.8 9.3 1.9 1.7 3.9 3.3 6 4.8 1.4 1 2.8 1.9 4.2 2.8 1.4 0.9 2.9 1.7 4.4 2.5 0.8 0.4 1.5 0.8 2.3 1.2 2.3 1.1 4.6 2.1 7 3 1.6 0.6 3.2 1.1 4.9 1.6 0.8 0.2 1.6 0.5 2.5 0.7 1.7 0.4 3.3 0.8 5 1.1 4.2 0.8 8.6 1.2 13 1.2h3.9c0.7 0 1.3-0.1 2-0.1 0.6 0 1.2-0.1 1.8-0.1 0.7-0.1 1.3-0.2 1.9-0.2 0.6-0.1 1.2-0.1 1.8-0.2 0.7-0.1 1.3-0.2 1.9-0.3 0.6-0.1 1.2-0.2 1.7-0.3 0.7-0.1 1.3-0.3 1.9-0.4 0.6-0.1 1.1-0.2 1.7-0.4 0.7-0.2 1.3-0.4 1.9-0.5 0.5-0.2 1.1-0.3 1.6-0.5 0.7-0.2 1.3-0.4 1.9-0.7 0.5-0.2 1-0.3 1.5-0.5 0.7-0.2 1.3-0.5 1.9-0.8 0.5-0.2 1-0.4 1.4-0.6 0.7-0.3 1.3-0.6 2-0.9 0.4-0.2 0.9-0.4 1.3-0.6 0.7-0.3 1.3-0.7 2-1 0.4-0.2 0.8-0.4 1.3-0.6 0.7-0.4 1.3-0.7 2-1.1 0.4-0.2 0.8-0.4 1.2-0.7 0.7-0.4 1.3-0.8 2-1.3 0.4-0.2 0.7-0.4 1.1-0.7 0.7-0.4 1.3-0.9 1.9-1.4 0.3-0.2 0.7-0.5 1-0.7 0.6-0.5 1.3-1 1.9-1.5 0.3-0.2 0.6-0.5 0.9-0.7 0.6-0.5 1.2-1.1 1.9-1.6 0.3-0.2 0.6-0.5 0.9-0.7 0.6-0.6 1.2-1.1 1.8-1.7 0.3-0.3 0.5-0.5 0.8-0.7l1.8-1.8c0.2-0.3 0.5-0.5 0.7-0.7 0.6-0.6 1.1-1.3 1.7-1.9 0.2-0.3 0.4-0.5 0.7-0.8 0.5-0.7 1.1-1.3 1.6-2 0.2-0.3 0.4-0.5 0.6-0.8l1.5-2.1c0.2-0.3 0.4-0.5 0.6-0.8 0.5-0.7 1-1.5 1.4-2.2 0.2-0.3 0.4-0.5 0.5-0.8 0.5-0.8 0.9-1.5 1.3-2.3 0.2-0.3 0.3-0.6 0.5-0.8l1.2-2.4c0.1-0.3 0.3-0.6 0.4-0.9 0.4-0.8 0.7-1.6 1.1-2.4 0.1-0.3 0.3-0.6 0.4-0.9l0.9-2.4c0.1-0.3 0.3-0.7 0.4-1 0.3-0.8 0.6-1.6 0.8-2.4 0.1-0.4 0.2-0.7 0.4-1.1 0.2-0.8 0.5-1.6 0.7-2.4l0.3-1.2c0.2-0.8 0.4-1.6 0.5-2.3 0.1-0.4 0.2-0.8 0.3-1.3 0.2-0.8 0.3-1.5 0.4-2.3 0.1-0.5 0.2-0.9 0.3-1.4 0.1-0.7 0.2-1.5 0.3-2.2 0.1-0.5 0.1-1 0.2-1.5 0.1-0.8 0.1-1.6 0.2-2.4 0-0.5 0.1-0.9 0.1-1.4 0-0.8 0.1-1.6 0.1-2.5V301c0-1.1 0-2.2-0.1-3.3s-0.1-2.2-0.2-3.3c-0.4-4.4-1.1-8.7-2.3-13l-0.6-2.1c-0.4-1.4-0.9-2.8-1.4-4.2-0.3-0.7-0.5-1.4-0.8-2.1-0.8-2-1.7-4.1-2.7-6-0.6-1.1-1.1-2.2-1.7-3.3-4.2-7.5-9.7-14.2-16.2-19.8-0.9-0.8-1.9-1.6-2.8-2.3-2.9-2.2-5.9-4.3-9.1-6.1-1.1-0.6-2.1-1.2-3.2-1.7-3.3-1.6-6.7-3.1-10.3-4.2-1.1-0.4-2.2-0.7-3.3-1-0.4-0.1-0.7-0.2-1.1-0.3-0.8-0.2-1.6-0.4-2.3-0.6l-1.2-0.3c-0.8-0.2-1.6-0.3-2.4-0.5-0.3-0.1-0.7-0.1-1-0.2-1.1-0.2-2.2-0.3-3.4-0.5h-0.5c-1-0.1-1.9-0.2-2.9-0.3-0.4 0-0.7 0-1.1-0.1-0.8 0-1.5-0.1-2.3-0.1h-4.5c-1.1 0-2.2 0.1-3.3 0.2-0.2 0-0.4 0-0.6 0.1l-2.7 0.3c-0.4 0-0.7 0.1-1.1 0.2-0.8 0.1-1.5 0.2-2.3 0.4-0.4 0.1-0.7 0.1-1.1 0.2-0.8 0.1-1.6 0.3-2.4 0.5-0.3 0.1-0.6 0.1-0.9 0.2-1.1 0.3-2.1 0.5-3.2 0.8-0.1 0-0.3 0.1-0.4 0.1-0.9 0.3-1.8 0.5-2.7 0.8-0.3 0.1-0.7 0.2-1 0.3-0.7 0.3-1.5 0.5-2.2 0.8-0.3 0.1-0.7 0.3-1 0.4-0.8 0.3-1.5 0.6-2.3 0.9-0.2 0.2-0.5 0.3-0.7 0.4zM554.5 900.1c-0.4-2.4-0.9-4.8-1.6-7.2-1.3-4.8-3.1-9.5-5.4-14.1-3.4-6.7-7.7-12.8-12.7-18.1-1.7-1.8-3.5-3.5-5.3-5-0.9-0.8-1.9-1.6-2.8-2.3-1.9-1.5-3.9-2.9-6-4.2-2.1-1.3-4.2-2.5-6.4-3.6s-4.5-2.1-6.8-3c-1.2-0.4-2.3-0.9-3.5-1.2l-3.3-0.9c-0.3-0.1-0.6-0.1-0.9-0.2-1-0.2-1.9-0.4-2.9-0.6-0.2 0-0.3-0.1-0.5-0.1-1.1-0.2-2.2-0.4-3.3-0.5-0.3 0-0.6-0.1-0.9-0.1l-2.7-0.3c-0.2 0-0.5 0-0.7-0.1-1.1-0.1-2.2-0.1-3.3-0.2h-4.4c-0.8 0-1.5 0.1-2.3 0.1-0.4 0-0.7 0-1.1 0.1-1.1 0.1-2.1 0.2-3.2 0.3h-0.2c-1.1 0.1-2.2 0.3-3.3 0.5-0.3 0.1-0.7 0.1-1 0.2-0.8 0.1-1.6 0.3-2.3 0.5l-1.2 0.3c-0.7 0.2-1.4 0.3-2.2 0.5-0.4 0.1-0.8 0.2-1.1 0.3-0.8 0.2-1.5 0.4-2.3 0.7l-0.9 0.3c-1.1 0.4-2.1 0.7-3.2 1.1-0.1 0-0.1 0-0.2 0.1-1 0.4-1.9 0.8-2.9 1.2-0.3 0.1-0.6 0.3-0.9 0.4-0.7 0.3-1.4 0.6-2.1 1-0.3 0.2-0.7 0.3-1 0.5-0.7 0.3-1.3 0.7-2 1-0.3 0.2-0.7 0.4-1 0.5-0.7 0.4-1.4 0.8-2.2 1.3-0.2 0.1-0.5 0.3-0.7 0.4-0.9 0.6-1.9 1.2-2.8 1.8-0.1 0.1-0.3 0.2-0.4 0.3-0.8 0.5-1.5 1.1-2.3 1.6-0.3 0.2-0.6 0.4-0.9 0.7-0.6 0.5-1.2 0.9-1.8 1.4-0.3 0.3-0.6 0.5-0.9 0.8-0.6 0.5-1.1 1-1.7 1.5-0.3 0.2-0.6 0.5-0.8 0.8-0.6 0.6-1.3 1.2-1.9 1.9l-0.5 0.5c-0.8 0.8-1.6 1.6-2.3 2.5-0.2 0.2-0.3 0.4-0.5 0.6-0.6 0.6-1.1 1.3-1.7 2-0.2 0.3-0.5 0.6-0.7 0.9-0.5 0.6-0.9 1.2-1.4 1.8-0.2 0.3-0.5 0.7-0.7 1-0.4 0.6-0.9 1.3-1.3 1.9l-0.6 0.9c-0.5 0.8-1 1.7-1.6 2.5-0.1 0.1-0.2 0.3-0.2 0.4-0.6 1-1.1 2-1.7 3-0.2 0.3-0.3 0.6-0.4 0.9-0.4 0.7-0.7 1.5-1.1 2.2-0.2 0.4-0.3 0.8-0.5 1.1l-0.9 2.1c-0.2 0.4-0.3 0.8-0.5 1.2-0.3 0.7-0.6 1.5-0.8 2.3-0.1 0.4-0.3 0.7-0.4 1.1-0.4 1.1-0.7 2.3-1.1 3.4-2.7 9.4-3.5 18.9-2.5 28.1 0.2 2.3 0.6 4.6 1 6.8 0.4 2.3 1 4.5 1.6 6.7 0.6 2.2 1.4 4.4 2.2 6.5 0.4 1.1 0.9 2.1 1.3 3.2 0.9 2.1 2 4.1 3.1 6.1 0.6 1 1.1 2 1.7 2.9 1.2 1.9 2.5 3.8 3.9 5.6 2.1 2.7 4.3 5.3 6.8 7.8 1.2 1.2 2.5 2.4 3.8 3.5 1.3 1.1 2.7 2.2 4.1 3.3 1.4 1 2.8 2.1 4.3 3 0.7 0.5 1.5 0.9 2.3 1.4 1.5 0.9 3.1 1.8 4.7 2.6 2.4 1.2 4.9 2.3 7.5 3.3 0.9 0.3 1.9 0.6 2.8 0.9 0.3 0.1 0.6 0.2 0.9 0.2 0.6 0.2 1.3 0.4 1.9 0.5l1.2 0.3c0.6 0.1 1.1 0.3 1.7 0.4 0.4 0.1 0.8 0.2 1.3 0.2 0.5 0.1 1.1 0.2 1.6 0.3 0.4 0.1 0.9 0.1 1.3 0.2 0.5 0.1 1.1 0.2 1.6 0.2 0.4 0.1 0.9 0.1 1.3 0.1 0.5 0.1 1.1 0.1 1.6 0.2 0.4 0 0.9 0.1 1.4 0.1 0.5 0 1.1 0.1 1.6 0.1h3.2c2.9 0 5.9-0.2 8.8-0.5 5.1-0.6 10.1-1.7 14.9-3.3 1.4-0.5 2.8-1 4.1-1.5 2-0.8 4-1.7 6-2.7 9.4-4.7 17.3-11.1 23.6-18.7 1-1.2 1.9-2.3 2.8-3.6 0.4-0.6 0.9-1.2 1.3-1.8 0.9-1.2 1.7-2.5 2.5-3.8 1.6-2.6 3-5.2 4.2-7.9 0.6-1.4 1.2-2.7 1.7-4.1 0.9-2.2 1.6-4.5 2.3-6.8 0.6-2.3 1.2-4.6 1.6-7 0.4-2.4 0.7-4.7 0.9-7.1 0.1-1.2 0.2-2.4 0.2-3.6 0.1-2.4 0-4.8-0.1-7.3-0.2-2.7-0.5-5.1-0.9-7.5z" p-id="4248" fill="#F79600"></path><path d="M504.2 846.1c1.2 0.4 2.4 0.8 3.5 1.2-1.2-0.4-2.4-0.8-3.5-1.2z" fill="#F79600" p-id="4249"></path></svg>