<svg t="1748591790641" class="icon" viewBox="0 0 1025 1024" version="1.1" xmlns="http://www.w3.org/2000/svg" p-id="7264" width="22" height="22"><path d="M1010.822918 943.532994l-83.380952-81.186716a251.605678 251.605678 0 0 0-196.018376-390.57393h-14.628237a252.337089 252.337089 0 0 0-248.680031 292.564741 254.531325 254.531325 0 0 0 198.944025 205.526731 285.982035 285.982035 0 0 0 49.736006 4.388471 250.142854 250.142854 0 0 0 160.910607-54.855889l81.918128 78.992481a37.302005 37.302005 0 0 0 27.062239 10.971177 39.49624 39.49624 0 0 0 27.79365-10.971177 40.959064 40.959064 0 0 0 10.971178-27.793651 38.033416 38.033416 0 0 0-14.628237-27.062238z m-169.68755-96.546365A174.807433 174.807433 0 0 1 593.918161 599.769422a174.807433 174.807433 0 0 1 247.217207 247.217207zM365.717663 658.282371H183.596112a33.644945 33.644945 0 0 0 0 66.558478h182.121551a33.644945 33.644945 0 0 0 0-66.558478zM365.717663 493.714704H183.596112a32.913533 32.913533 0 0 0-32.913534 32.913533 33.644945 33.644945 0 0 0 32.913534 33.644945h182.121551a33.644945 33.644945 0 0 0 32.913533-33.644945 32.913533 32.913533 0 0 0-32.913533-32.913533zM522.971212 361.329158a31.45071 31.45071 0 0 0 16.09106-4.388471l169.68755-87.03801a37.302005 37.302005 0 0 0 18.285297-21.210944 36.570593 36.570593 0 0 0-51.19883-43.884711L522.971212 285.993737l-168.956139-62.170007a32.913533 32.913533 0 0 0-11.702589 0 38.033416 38.033416 0 0 0-18.285297 5.119883L190.178818 307.936093a36.570593 36.570593 0 0 0-16.822472 21.942355 40.959064 40.959064 0 0 0 0 27.793651 38.033416 38.033416 0 0 0 32.182121 18.285296 43.153299 43.153299 0 0 0 18.285296-5.119883l115.563073-73.141185 172.613198 61.438596a37.302005 37.302005 0 0 0 10.971178 2.194235z" fill="#F79600" p-id="7265"></path><path d="M438.858848 950.847112H92.901042a19.016708 19.016708 0 0 1-19.74812-19.74812V91.438184A18.285296 18.285296 0 0 1 92.901042 73.152888h727.023382a18.285296 18.285296 0 0 1 18.285296 18.285296V351.089392a36.570593 36.570593 0 0 0 73.141186 0V91.438184A91.426482 91.426482 0 0 0 819.924424 0.011703H92.901042A91.426482 91.426482 0 0 0 0.011736 91.438184v839.660808A91.426482 91.426482 0 0 0 92.901042 1023.988297h350.346277a36.570593 36.570593 0 0 0 35.839181-36.570592 35.839181 35.839181 0 0 0-40.227652-36.570593z" fill="#F79600" p-id="7266"></path></svg>