<svg t="1745573176348" class="icon" viewBox="0 0 1024 1024" version="1.1" xmlns="http://www.w3.org/2000/svg" p-id="6511" width="22" height="22"><path d="M746.66666699 170.666667l1e-8 149.333333a42.666667 42.666667 0 0 1-42.666667 42.666667l-384 0a42.666667 42.666667 0 0 1-42.666667-42.666667L277.33333301 170.666667l469.33333398 0zM746.666667 704L746.66666699 853.333333l-469.33333398 0-1e-8-149.333333a42.666667 42.666667 0 0 1 42.666667-42.666667l384 0a42.666667 42.666667 0 0 1 42.666667 42.666667z" p-id="6512"></path><path d="M861.866667 885.333333l-699.733334 0a12.8 12.8 0 0 1-12.8-12.8l-1e-8-38.4a12.8 12.8 0 0 1 12.80000001-12.8L861.866667 821.333333a12.8 12.8 0 0 1 12.80000001 12.8l-1e-8 38.4a12.8 12.8 0 0 1-12.8 12.8zM861.866667 202.666667l-699.733334 0a12.8 12.8 0 0 1-12.80000001-12.8l1e-8-38.4a12.8 12.8 0 0 1 12.8-12.8L861.866667 138.666667a12.8 12.8 0 0 1 12.8 12.8l1e-8 38.4a12.8 12.8 0 0 1-12.80000001 12.8z" p-id="6513"></path></svg>