<svg t="1745573151268" class="icon" viewBox="0 0 1024 1024" version="1.1" xmlns="http://www.w3.org/2000/svg" p-id="6197" width="22" height="22"><path d="M277.333333 789.333333m0-42.666666l0-106.666667q0-42.66666701 42.666667-42.666667l384 0q42.66666701 0 42.666667 42.666667l0 106.666667q0 42.66666701-42.666667 42.666666l-384 0q-42.66666701 0-42.666667-42.666666Z" p-id="6198"></path><path d="M277.333333 426.666667m0-42.666667l0-106.666667q0-42.66666701 42.666667-42.666666l384 0q42.66666701 0 42.666667 42.666666l0 106.666667q0 42.66666701-42.666667 42.666667l-384 0q-42.66666701 0-42.666667-42.666667Z" p-id="6199"></path><path d="M162.133333 480l699.733334 0a12.8 12.8 0 0 1 12.8 12.80000001l0 38.39999998a12.8 12.8 0 0 1-12.8 12.80000001L162.133333 544a12.8 12.8 0 0 1-12.8-12.80000001l0-38.39999998a12.8 12.8 0 0 1 12.8-12.80000001z" p-id="6200"></path></svg>