<svg t="1745572271978" class="icon" viewBox="0 0 1024 1024" version="1.1" xmlns="http://www.w3.org/2000/svg" p-id="5253" width="22" height="22"><path d="M170.666667 277.333333h149.333333a42.666667 42.666667 0 0 1 42.666667 42.666667v384a42.666667 42.666667 0 0 1-42.666667 42.666667H170.666667v-469.333334zM704 277.333333H853.333333v469.333334h-149.333333a42.666667 42.666667 0 0 1-42.666667-42.666667v-384a42.666667 42.666667 0 0 1 42.666667-42.666667z" p-id="5254"></path><path d="M885.333333 162.133333v699.733334a12.8 12.8 0 0 1-12.8 12.8h-38.4a12.8 12.8 0 0 1-12.8-12.8V162.133333a12.8 12.8 0 0 1 12.8-12.8h38.4a12.8 12.8 0 0 1 12.8 12.8zM202.666667 162.133333v699.733334a12.8 12.8 0 0 1-12.8 12.8h-38.4a12.8 12.8 0 0 1-12.8-12.8V162.133333a12.8 12.8 0 0 1 12.8-12.8h38.4a12.8 12.8 0 0 1 12.8 12.8z" p-id="5255"></path></svg>