<svg t="1745572138437" class="icon" viewBox="0 0 1024 1024" version="1.1" xmlns="http://www.w3.org/2000/svg" p-id="3690" width="22" height="22"><path d="M234.666667 277.333333m42.666666 0l106.666667 0q42.666667 0 42.666667 42.666667l0 384q0 42.666667-42.666667 42.666667l-106.666667 0q-42.666667 0-42.666666-42.666667l0-384q0-42.666667 42.666666-42.666667Z" p-id="3691"></path><path d="M597.333333 277.333333m42.666667 0l106.666667 0q42.666667 0 42.666666 42.666667l0 384q0 42.666667-42.666666 42.666667l-106.666667 0q-42.666667 0-42.666667-42.666667l0-384q0-42.666667 42.666667-42.666667Z" p-id="3692"></path><path d="M544 162.133333v699.733334a12.8 12.8 0 0 1-12.8 12.8h-38.4a12.8 12.8 0 0 1-12.8-12.8V162.133333a12.8 12.8 0 0 1 12.8-12.8h38.4a12.8 12.8 0 0 1 12.8 12.8z" p-id="3693"></path></svg>