<svg t="1743067086130" class="icon" viewBox="0 0 1024 1024" version="1.1" xmlns="http://www.w3.org/2000/svg" p-id="2903" width="22" height="22"><path d="M987.424 96H36.576c-9.696 0-19.008 3.84-25.888 10.624A36.224 36.224 0 0 0 0 132.352v727.296c0 9.632 3.84 18.88 10.688 25.728 6.88 6.816 16.192 10.624 25.888 10.624h950.848c9.696 0 19.008-3.84 25.888-10.624 6.848-6.848 10.688-16.096 10.688-25.728V132.352c0-9.632-3.84-18.88-10.688-25.728A36.64 36.64 0 0 0 987.424 96z m-41.12 718.176h-864V177.824h864v636.352z" p-id="2904"></path><path d="M286.56 634.08c72.96 0 131.072-28.704 131.072-92.864 0-41.792-25.664-65.44-59.456-73.888v-1.696c27.04-9.696 43.712-40.096 43.712-67.968 0-60.352-55.424-77.664-124.8-77.664H160v314.08h126.56z m-12.608-189.536H240.64v-67.136H273.92c33.792 0 49.568 9.28 49.568 31.68 0 21.504-15.328 35.456-49.568 35.456z m6.752 131.712H240.64v-76h40.064c39.2 0 58.56 10.144 58.56 35.904 0 27.008-19.84 40.096-58.56 40.096zM562.24 640c26.112 0 44.576-5.056 58.112-8.864l-12.64-54.048c-6.304 1.696-15.296 4.224-23.424 4.224-18.88 0-32.416-10.56-32.416-37.12v-91.648h60.352V393.92h-60.352v-63.36h-66.656l-9.024 63.36-39.168 2.944v55.712h34.688v92.48c0 56.96 26.112 94.976 90.528 94.976z m179.264-5.92v-160.416c15.776-13.92 26.56-21.536 44.576-21.536 20.288 0 29.76 9.728 29.76 42.656v139.296H896v-148.576c0-59.968-23.872-97.536-79.712-97.536-34.688 0-60.8 16.48-81.984 35.872h-1.824l-5.376-29.952H661.76v240.192h79.712z" p-id="2905"></path></svg>