<svg t="1753165014961" class="icon" viewBox="0 0 1024 1024" version="1.1" xmlns="http://www.w3.org/2000/svg" p-id="8746" width="22" height="22"><path d="M126.125 103.68125c-13.78125 0-22.8375 9.05625-22.8375 22.8375s9.05625 22.8375 22.8375 22.8375 22.8375-9.05625 22.8375-22.8375-9.05625-22.8375-22.8375-22.8375z m90.95625 0c-13.78125 0-22.8375 9.05625-22.8375 22.8375s9.05625 22.8375 22.8375 22.8375 22.8375-9.05625 22.8375-22.8375c-0.39375-13.78125-9.45-22.8375-22.8375-22.8375z m90.5625 0c-13.78125 0-22.8375 9.05625-22.8375 22.8375s9.05625 22.8375 22.8375 22.8375 22.8375-9.05625 22.8375-22.8375-9.05625-22.8375-22.8375-22.8375zM920.31875 12.725H103.68125C53.675 12.725 12.725 53.675 12.725 103.68125v817.03125c0 50.00625 40.95 90.95625 90.95625 90.95625h817.03125c50.00625 0 90.95625-40.95 90.95625-90.95625V103.68125c-0.39375-50.00625-41.34375-90.95625-91.35-90.95625z m45.675 907.59375c0 24.80625-20.475 45.28125-45.28125 45.28125H103.68125c-24.80625 0-45.28125-20.475-45.28125-45.28125V239.525h907.59375v680.79375z m0-726.075H58.00625v-90.5625c0-24.80625 20.475-45.28125 45.28125-45.28125h817.03125c24.80625 0 45.28125 20.475 45.28125 45.28125v90.5625z m-68.11875-90.5625H398.6c-13.78125 0-22.8375 9.05625-22.8375 22.8375s9.05625 22.8375 22.8375 22.8375H897.875c13.78125 0 22.8375-9.05625 22.8375-22.8375-0.39375-13.78125-9.45-22.8375-22.8375-22.8375z m0 0" fill="#F79600" p-id="8747"></path><path d="M645.0875 541.53125c7.875 7.875 18.9 12.20625 29.925 12.20625 11.41875 0 22.05-4.33125 29.925-12.20625l88.2-87.80625c7.875-7.875 12.6-18.50625 12.6-29.925 0-11.41875-4.33125-22.05-12.6-29.925l-93.7125-93.31875c-16.14375-15.75-44.1-15.75-60.24375 0L551.375 388.3625c-7.875 7.875-12.6 18.50625-12.6 29.925 0 11.41875 4.33125 22.05 12.6 29.925l93.7125 93.31875z m-68.11875-127.575L665.5625 326.15c1.575-1.575 3.54375-1.575 4.33125-1.575 0.7875 0 2.75625 0.39375 4.33125 1.575l93.7125 93.31875c1.575 1.575 1.575 3.54375 1.575 4.33125 0 0.7875-0.39375 2.75625-1.575 4.33125L679.34375 515.9375c-1.575 1.575-3.54375 1.575-4.33125 1.575-0.7875 0-2.75625-0.39375-4.33125-1.575l-93.7125-93.31875c-1.575-1.575-1.575-3.54375-1.575-4.33125s0-2.75625 1.575-4.33125z m-215.775 223.25625c-16.14375-15.75-44.1-15.75-60.24375 0l-11.8125 11.41875c-11.8125 11.8125-24.01875 32.2875-28.35 48.0375l-38.98125 133.0875c-3.15 11.025-1.96875 21.2625 3.9375 29.1375 5.5125 7.0875 13.78125 11.025 23.23125 11.025 3.9375 0 7.875-0.7875 11.8125-1.96875l138.99375-42.525c15.75-4.725 36.225-17.325 48.0375-28.74375l6.69375-6.69375c7.875-7.875 12.6-18.50625 12.6-29.925 0-11.41875-4.33125-22.05-12.6-29.925l-93.31875-92.925z m67.725 127.575l-6.69375 6.69375c-7.48125 7.48125-22.8375 16.5375-32.68125 19.6875l-83.08125 25.59375-31.5-37.8 20.86875-71.6625c2.75625-9.84375 12.20625-25.2 19.29375-32.68125l11.8125-11.41875c1.575-1.575 3.54375-1.575 4.33125-1.575 0.7875 0 2.75625 0.39375 4.33125 1.575L429.3125 756.125c1.575 1.575 1.575 3.54375 1.575 4.33125 0 0.7875-0.39375 2.75625-1.96875 4.33125zM367.1 300.55625c-16.14375-15.75-44.1-15.75-60.24375 0L213.5375 393.875c-7.875 7.875-12.6 18.50625-12.6 29.925 0 11.41875 4.33125 22.05 12.6 29.925l426.43125 424.06875c7.875 7.875 18.9 12.20625 29.925 12.20625 11.41875 0 22.05-4.33125 29.925-12.20625l93.7125-93.31875c7.875-7.875 12.6-18.50625 12.6-29.925s-4.33125-22.05-12.6-29.925L367.1 300.55625z m400.44375 457.93125l-93.7125 93.31875c-1.575 1.575-3.54375 1.575-4.33125 1.575s-2.75625-0.39375-4.33125-1.575L239.13125 428.13125c-1.575-1.575-1.575-3.54375-1.575-4.33125 0-0.7875 0.39375-2.75625 1.575-4.33125l93.7125-93.31875c1.575-1.575 3.54375-1.575 4.33125-1.575 0.7875 0 2.75625 0.39375 4.33125 1.575l12.6 12.6-43.3125 43.3125c-7.0875 7.0875-7.0875 18.50625 0 25.59375 3.54375 3.54375 8.26875 5.5125 12.99375 5.5125 4.725 0 9.45-1.575 12.99375-5.5125l43.70625-43.3125 21.2625 21.2625-18.9 18.9c-7.0875 7.0875-7.0875 18.50625 0 25.59375 3.54375 3.54375 8.26875 5.5125 12.99375 5.5125 4.725 0 9.45-1.575 12.99375-5.5125l18.9-18.9 21.2625 21.2625-43.70625 43.3125c-7.0875 7.0875-7.0875 18.50625 0 25.59375 3.54375 3.54375 8.26875 5.5125 12.99375 5.5125 4.725 0 9.45-1.575 12.99375-5.5125l43.70625-43.3125 21.2625 21.2625-18.9 18.9c-7.0875 7.0875-7.0875 18.50625 0 25.59375 3.54375 3.54375 8.26875 5.5125 12.99375 5.5125 4.725 0 9.45-1.575 12.99375-5.5125l18.9-18.9 21.2625 21.2625-43.70625 43.3125c-7.0875 7.0875-7.0875 18.50625 0 25.59375 3.54375 3.54375 8.26875 5.5125 12.99375 5.5125 4.725 0 9.45-1.575 12.99375-5.5125l43.70625-43.3125 21.2625 21.2625-18.9 18.9c-7.0875 7.0875-7.0875 18.50625 0 25.59375 3.54375 3.54375 8.26875 5.5125 12.99375 5.5125 4.725 0 9.45-1.575 12.99375-5.5125l18.9-18.9 21.2625 21.2625-43.70625 43.3125c-7.0875 7.0875-7.0875 18.50625 0 25.59375 3.54375 3.54375 8.26875 5.5125 12.99375 5.5125 4.725 0 9.45-1.575 12.99375-5.5125l43.70625-43.3125 21.2625 21.2625-18.9 18.9c-7.0875 7.0875-7.0875 18.50625 0 25.59375 3.54375 3.54375 8.26875 5.5125 12.99375 5.5125 4.725 0 9.45-1.575 12.99375-5.5125l18.9-18.9 21.2625 21.2625-43.70625 43.3125c-7.0875 7.0875-7.0875 18.50625 0 25.59375 3.54375 3.54375 8.26875 5.5125 12.99375 5.5125 4.725 0 9.45-1.575 12.99375-5.5125l43.70625-43.3125 12.20625 12.20625c1.575 1.575 1.575 3.54375 1.575 4.33125s-3.15 1.18125-4.725 2.75625z m0 0" fill="#F79600" p-id="8748"></path></svg>