<svg t="1745573186918" class="icon" viewBox="0 0 1024 1024" version="1.1" xmlns="http://www.w3.org/2000/svg" p-id="6823" width="22" height="22"><path d="M116.77193 161.684211a35.929825 35.929825 0 0 1 35.929824-35.929825l718.596492 0a35.929825 35.929825 0 1 1 0 71.85964899l-718.596492 0a35.929825 35.929825 0 0 1-35.929824-35.92982399zM763.508772 320.098807l0 150.366316c0 9.16210501-5.389474 14.551579-10.77894699 14.551579l-481.45965002 0c-5.389474 0-10.778947-7.185965-10.77894699-14.551579l0-150.366316c0-8.982456 5.389474-14.37193 10.778947-14.37193L752.729825 305.726877c5.389474-1.97614 10.778947 5.389474 10.778947 14.37193zM116.77193 880.244772a35.929825 35.929825 0 0 1 35.929824-35.929825l718.596492 0a35.929825 35.929825 0 1 1 0 71.859649l-718.596492 0a35.929825 35.929825 0 0 1-35.929824-35.929824zM763.508772 571.607579l0 150.366316c0 9.16210501-5.389474 14.551579-10.77894699 14.551579l-481.45965002 0c-5.389474 0-10.778947-7.185965-10.77894699-14.551579l0-150.366316c0-8.982456 5.389474-14.37193 10.778947-14.37193L752.729825 557.235649c5.389474-1.97614 10.778947 5.389474 10.778947 14.37193z" p-id="6824"></path></svg>