<svg t="1753963012995" class="icon" viewBox="0 0 1024 1024" version="1.1" xmlns="http://www.w3.org/2000/svg" p-id="8257" width="22" height="22"><path d="M255.146667 141.312c-21.504 0-38.912 6.144-53.248 20.48a67.925333 67.925333 0 0 0-21.504 52.224c0 20.48 7.168 38.912 21.504 53.248a75.093333 75.093333 0 0 0 53.248 20.48c20.48 0 38.912-7.168 53.248-20.48a72.618667 72.618667 0 0 0 22.528-53.248 67.925333 67.925333 0 0 0-21.504-52.224c-14.336-14.336-32.768-20.48-54.272-20.48zM200.874667 353.28v529.408h108.544V353.28H200.874667zM733.013333 151.552c-47.104 0-81.92 12.288-106.496 38.912-24.576 24.576-36.864 60.416-36.864 105.472v57.344H467.797333v89.088H589.653333v440.32h107.52v-440.32h139.264V353.28H697.173333v-54.272c0-19.456 4.096-33.792 12.288-41.984 8.192-9.216 21.504-13.312 38.912-13.312h95.232v-92.16H733.013333z" p-id="8258" fill="#2c2c2c"></path></svg>