<svg t="1748075429910" class="icon" viewBox="0 0 1024 1024" version="1.1" xmlns="http://www.w3.org/2000/svg" p-id="34725" width="22" height="22"><path d="M56.832 325.632c-11.264 13.824-12.8 20.48-10.752 43.008 1.536 20.48 97.28 302.592 108.544 321.536 19.456 31.232 43.008 34.816 67.584 10.24 14.336-14.336 24.064-38.912 68.608-174.08C319.488 439.808 343.04 361.984 343.04 353.28c0-18.432-19.456-40.96-35.84-40.96-27.648 0-34.304 14.336-87.04 192-11.776 39.424-22.528 75.264-24.064 79.36-1.536 4.096-14.848-34.816-30.208-87.04C125.44 357.376 113.152 323.072 102.4 317.44c-16.896-9.216-34.816-5.632-45.568 8.192zM471.552 323.584C404.48 349.184 370.688 430.592 416.768 455.68c17.92 9.216 30.72 2.56 48.128-25.088 18.944-30.72 34.816-41.984 65.024-45.568 31.232-3.072 52.224 6.144 58.368 26.624 12.288 41.472 12.288 41.472-13.824 50.688-13.312 4.608-42.496 12.8-65.024 18.944-75.776 19.968-97.792 32.768-116.224 68.608-6.656 13.312-10.24 29.696-10.24 51.2 0 46.08 15.36 75.264 51.712 100.352 35.328 24.576 116.736 11.776 149.504-23.552 14.848-15.872 20.992-15.36 31.232 1.536 4.608 8.192 14.336 19.968 21.504 26.624 11.264 10.752 15.872 11.776 27.136 7.68 7.68-2.56 17.92-11.776 23.04-20.48 8.192-14.336 8.704-17.92 1.536-51.2-4.608-22.528-7.68-65.536-7.68-120.32 0-135.68-12.8-174.08-64.512-197.12-37.376-16.384-103.424-16.896-144.896-1.024z m125.44 229.888c-1.536 16.896-6.656 38.912-11.264 49.152-11.776 24.064-41.984 42.496-70.656 42.496-18.944 0-24.576-2.56-35.84-15.872-25.088-29.696-12.8-68.608 26.624-81.92 24.064-8.704 78.336-23.552 87.552-24.576 5.632-0.512 6.656 5.632 3.584 30.72zM775.68 322.56c-5.12 5.632-10.752 19.968-13.312 31.744-6.144 31.232-5.632 300.032 0.512 322.048 3.072 9.728 10.752 23.552 17.92 30.208 10.752 10.24 15.36 11.264 26.624 7.168 7.168-2.56 17.92-11.264 24.064-18.944 9.728-12.8 10.752-24.064 13.824-122.88 2.048-59.904 5.632-116.224 8.704-125.952 13.824-41.984 33.792-52.736 72.192-38.912 28.672 10.24 29.696 9.728 44.032-5.12 13.824-13.312 16.896-36.864 7.68-54.272-3.072-5.632-14.848-15.36-25.6-22.528-36.352-23.04-75.776-14.336-97.792 20.992l-11.776 18.944-6.656-19.968c-3.584-10.752-10.752-23.04-15.36-26.624-12.8-9.216-34.816-7.68-45.056 4.096z" p-id="34726" fill="#2c2c2c"></path></svg>