<svg t="1745572175056" class="icon" viewBox="0 0 1024 1024" version="1.1" xmlns="http://www.w3.org/2000/svg" p-id="4005" width="22" height="22"><path d="M384 277.333333m42.666667 0l106.666666 0q42.666667 0 42.666667 42.666667l0 384q0 42.666667-42.666667 42.666667l-106.666666 0q-42.666667 0-42.666667-42.666667l0-384q0-42.666667 42.666667-42.666667Z" p-id="4006"></path><path d="M704 277.333333H853.333333v469.333334H704a42.666667 42.666667 0 0 1-42.666667-42.666667V320a42.666667 42.666667 0 0 1 42.666667-42.666667z" p-id="4007"></path><path d="M885.333333 162.133333v699.733334a12.8 12.8 0 0 1-12.8 12.8h-38.4a12.8 12.8 0 0 1-12.8-12.8V162.133333a12.8 12.8 0 0 1 12.8-12.8h38.4a12.8 12.8 0 0 1 12.8 12.8z" p-id="4008"></path></svg>