<svg t="1747384528451" class="icon" viewBox="0 0 1024 1024" version="1.1" xmlns="http://www.w3.org/2000/svg" p-id="6067" width="22" height="22"><path d="M77.626141 0.087417h-26.22503a51.226225 51.226225 0 0 0-51.226225 51.226225v25.613112A66.349326 66.349326 0 1 0 76.926807 0.174834zM52.013028 140.82841a51.226225 51.226225 0 0 1 51.226225 51.226225v25.613113a51.226225 51.226225 0 1 1-102.365033 0v-25.613113a51.226225 51.226225 0 0 1 50.526891-51.226225z" fill="#515151" p-id="6068"></path><path d="M563.750778 511.73775a51.226225 51.226225 0 1 0-102.365033 0v102.365033H51.401111a51.226225 51.226225 0 0 0-51.226225 51.226225v307.182517a51.226225 51.226225 0 0 0 51.226225 51.226225h921.897217a51.226225 51.226225 0 0 0 51.226225-51.226225V665.591258a51.226225 51.226225 0 0 0-51.226225-51.226225H563.750778V511.73775z m358.408742 409.54755V716.467816h-819.0951v204.817484z" fill="#515151" p-id="6069"></path><path d="M98.518748 311.728188A51.226225 51.226225 0 0 0 0.61197 332.795629v25.613113a51.226225 51.226225 0 0 0 51.226225 51.226225h25.613112a51.226225 51.226225 0 0 0 21.067441-97.819362z m926.005805-119.673553a51.226225 51.226225 0 0 0-102.365033 0v25.613113a51.226225 51.226225 0 0 0 102.365033 0z m-51.226225 89.602186a51.226225 51.226225 0 0 1 51.226225 51.226225V358.496158a51.226225 51.226225 0 0 1-51.226225 51.226225h-25.613113a69.933413 69.933413 0 0 1 25.613113-127.978145z m51.226225-230.343179A51.226225 51.226225 0 0 0 973.298328 0.087417h-25.613113a66.349326 66.349326 0 1 0 76.751921 76.751921V51.226225zM231.042565 0.087417a51.226225 51.226225 0 0 0 0 102.365033h25.613113a51.226225 51.226225 0 0 0 0-102.365033zM359.020711 51.313642A51.226225 51.226225 0 0 1 410.246936 0.087417h25.613113a51.226225 51.226225 0 0 1 0 102.365033h-25.613113a51.226225 51.226225 0 0 1-51.051391-51.226225z m51.226225 255.956291a51.226225 51.226225 0 0 0 0 102.365034h25.613113a51.226225 51.226225 0 0 0 0-102.365034zM538.225082 51.313642A51.226225 51.226225 0 0 1 589.451307 0.087417h25.613113a51.226225 51.226225 0 0 1 0 102.365033h-25.613113A51.226225 51.226225 0 0 1 538.225082 51.226225zM231.042565 307.269933a51.226225 51.226225 0 0 0 0 102.365034h25.613113a51.226225 51.226225 0 0 0 0-102.365034zM538.225082 358.496158a51.226225 51.226225 0 0 1 51.226225-51.226225h25.613113a51.226225 51.226225 0 1 1 0 102.365034h-25.613113a51.226225 51.226225 0 0 1-51.226225-51.226225zM768.568261 0.087417a51.226225 51.226225 0 1 0 0 102.365033h25.613113a51.226225 51.226225 0 1 0 0-102.365033z m-51.226225 358.408741a51.226225 51.226225 0 0 1 51.226225-51.226225h25.613113a51.226225 51.226225 0 0 1 0 102.365034h-25.613113a51.226225 51.226225 0 0 1-50.963975-51.226225z" fill="#2c2c2c" p-id="6070"></path></svg>