<svg t="1745572242234" class="icon" viewBox="0 0 1024 1024" version="1.1" xmlns="http://www.w3.org/2000/svg" p-id="4941" width="22" height="22"><path d="M161.684211 907.22807a35.929825 35.929825 0 0 1-35.929825-35.929824v-718.596492a35.929825 35.929825 0 1 1 71.859649 0v718.596492a35.929825 35.929825 0 0 1-35.929824 35.929824zM320.098807 260.491228h150.366316c9.162105 0 14.551579 5.389474 14.551579 10.778947v481.45965c0 5.389474-7.185965 10.778947-14.551579 10.778947h-150.366316c-8.982456 0-14.37193-5.389474-14.37193-10.778947V271.270175c-1.97614-5.389474 5.389474-10.778947 14.37193-10.778947zM880.244772 907.22807a35.929825 35.929825 0 0 1-35.929825-35.929824v-718.596492a35.929825 35.929825 0 1 1 71.859649 0v718.596492a35.929825 35.929825 0 0 1-35.929824 35.929824zM571.607579 260.491228h150.366316c9.162105 0 14.551579 5.389474 14.551579 10.778947v481.45965c0 5.389474-7.185965 10.778947-14.551579 10.778947h-150.366316c-8.982456 0-14.37193-5.389474-14.37193-10.778947V271.270175c-1.97614-5.389474 5.389474-10.778947 14.37193-10.778947z" p-id="4942"></path></svg>