<svg t="1745573213388" class="icon" viewBox="0 0 1024 1024" version="1.1" xmlns="http://www.w3.org/2000/svg" p-id="7136" width="22" height="22"><path d="M746.666667 234.666667m0 42.666666l0 106.666667q0 42.66666701-42.666667 42.666667l-384 0q-42.66666701 0-42.666667-42.666667l0-106.666667q0-42.66666701 42.666667-42.666666l384 0q42.66666701 0 42.666667 42.666666Z" p-id="7137"></path><path d="M746.666667 597.333333m0 42.666667l0 106.666667q0 42.66666701-42.666667 42.666666l-384 0q-42.66666701 0-42.666667-42.666666l0-106.666667q0-42.66666701 42.666667-42.666667l384 0q42.66666701 0 42.666667 42.666667Z" p-id="7138"></path><path d="M861.866667 885.333333l-699.733334 0a12.8 12.8 0 0 1-12.8-12.8l-1e-8-38.4a12.8 12.8 0 0 1 12.80000001-12.8L861.866667 821.333333a12.8 12.8 0 0 1 12.80000001 12.8l-1e-8 38.4a12.8 12.8 0 0 1-12.8 12.8zM861.866667 202.666667l-699.733334 0a12.8 12.8 0 0 1-12.80000001-12.8L149.333333 151.466667a12.8 12.8 0 0 1 12.8-12.8L861.866667 138.666667A12.8 12.8 0 0 1 874.666667 151.466667l1e-8 38.4a12.8 12.8 0 0 1-12.80000001 12.8z" p-id="7139"></path></svg>