<svg t="1745573127478" class="icon" viewBox="0 0 1024 1024" version="1.1" xmlns="http://www.w3.org/2000/svg" p-id="5882" width="22" height="22"><path d="M746.666667 384m0 42.666667l-1e-8 106.666666q0 42.66666701-42.66666699 42.666667l-384 0q-42.66666701 0-42.66666699-42.666667l-1e-8-106.666666q0-42.66666701 42.666667-42.666667l384 0q42.66666701 0 42.666667 42.666667Z" p-id="5883"></path><path d="M746.666667 704L746.66666699 853.333333l-469.33333398 0L277.333333 704a42.666667 42.666667 0 0 1 42.666667-42.666667L704 661.333333a42.666667 42.666667 0 0 1 42.666667 42.666667z" p-id="5884"></path><path d="M861.866667 885.333333l-699.733334 0a12.8 12.8 0 0 1-12.8-12.8l-1e-8-38.4a12.8 12.8 0 0 1 12.80000001-12.8L861.866667 821.333333a12.8 12.8 0 0 1 12.80000001 12.8l-1e-8 38.4a12.8 12.8 0 0 1-12.8 12.8z" p-id="5885"></path></svg>