<svg t="1745573104614" class="icon" viewBox="0 0 1024 1024" version="1.1" xmlns="http://www.w3.org/2000/svg" p-id="5567" width="22" height="22"><path d="M746.66666699 170.666667l1e-8 149.333333a42.666667 42.666667 0 0 1-42.666667 42.666667l-384 0a42.666667 42.666667 0 0 1-42.666667-42.666667L277.33333301 170.666667 746.66666699 170.666667z" p-id="5568"></path><path d="M746.666667 448m-1e-8 42.666667l1e-8 106.666666q0 42.66666701-42.666667 42.666667l-384 0q-42.66666701 0-42.666667-42.666667l1e-8-106.666666q0-42.66666701 42.66666699-42.666667l384 0q42.66666701 0 42.66666699 42.666667Z" p-id="5569"></path><path d="M861.866667 202.666667l-699.733334 0a12.8 12.8 0 0 1-12.80000001-12.8L149.333333 151.466667a12.8 12.8 0 0 1 12.8-12.8L861.866667 138.666667A12.8 12.8 0 0 1 874.666667 151.466667l1e-8 38.4a12.8 12.8 0 0 1-12.80000001 12.8z" p-id="5570"></path></svg>